<?xml version="1.0"?>
<svg xmlns="http://www.w3.org/2000/svg" xmlns:xlink="http://www.w3.org/1999/xlink" version="1.1" id="Capa_1" x="0px" y="0px" viewBox="0 0 512 512" style="enable-background:new 0 0 512 512;" xml:space="preserve" width="512px" height="512px" class=""><g><circle style="fill:#0091FF" cx="256" cy="256" r="256" data-original="#B9EAFF" class="" data-old_color="#0089FF"/><path style="fill:#0054FF" d="M512,256c0-22.487-2.91-44.293-8.356-65.073L398.333,85.616l-4.611,19.722L374,85.616l-3.084,15.967  L339.833,70.5l-0.826,53.783H248.95L195.167,70.5l-0.766,49.517l-34.4-34.4l-2.945,21.389l-21.389-21.389l-22,85.535l78.725,78.725  l-2.296,148.445L154,442.5l67.126,67.126C232.531,511.18,244.169,512,256,512c102.93,0,191.655-60.755,232.314-148.352l-1.627-1.627  l4.278-4.277C504.488,326.557,512,292.158,512,256z" data-original="#35CCFF" class="active-path" data-old_color="#005BFF"/><rect x="172.17" y="70.5" style="fill:#808080;" width="23" height="371" data-original="#808080" class=""/><rect x="316.83" y="70.5" style="fill:#666666;" width="23" height="371" data-original="#666666"/><rect x="239.5" y="225.92" style="fill:#333333;" width="33" height="205.08" data-original="#333333"/><rect x="255.67" y="225.92" style="fill:#1A1A1A;" width="16.834" height="205.08" data-original="#1A1A1A"/><rect x="154" y="409.5" style="fill:#333333;" width="204" height="33" data-original="#333333"/><rect x="255.67" y="409.5" style="fill:#1A1A1A;" width="102.33" height="33" data-original="#1A1A1A"/><rect x="186.5" y="302.5" style="fill:#F1333F;" width="139" height="33" data-original="#F1333F"/><rect x="255.67" y="302.5" style="fill:#AE283F;" width="69.833" height="33" data-original="#AE283F"/><rect x="209.5" y="162.53" style="fill:#F1333F;" width="93" height="124.47" data-original="#F1333F"/><rect x="255.67" y="162.53" style="fill:#AE283F;" width="46.833" height="124.47" data-original="#AE283F"/><rect x="122.67" y="117.38" style="fill:#666666;" width="266.67" height="22" data-original="#666666"/><rect x="255.67" y="117.38" style="fill:#4D4D4D" width="133.67" height="22" data-original="#4D4D4D" class=""/><g>
	<rect x="113.67" y="85.62" style="fill:#333333;" width="22" height="85.53" data-original="#333333"/>
	<rect x="138" y="85.62" style="fill:#333333;" width="22" height="85.53" data-original="#333333"/>
</g><g>
	<rect x="376.33" y="85.62" style="fill:#1A1A1A;" width="22" height="85.53" data-original="#1A1A1A"/>
	<rect x="352" y="85.62" style="fill:#1A1A1A;" width="22" height="85.53" data-original="#1A1A1A"/>
</g></g> </svg>
