<?xml version="1.0" encoding="iso-8859-1"?>
<!-- Generator: Adobe Illustrator 19.0.0, SVG Export Plug-In . SVG Version: 6.00 Build 0)  -->
<svg version="1.1" id="Capa_1" xmlns="http://www.w3.org/2000/svg" xmlns:xlink="http://www.w3.org/1999/xlink" x="0px" y="0px"
	 viewBox="0 0 512 512" style="enable-background:new 0 0 512 512;" xml:space="preserve">
<circle style="fill:#415BE9;" cx="256" cy="256" r="256"/>
<path style="fill:#062BE3;" d="M512,256c0-12.569-0.923-24.921-2.673-37.006L380,89.667l-14.905,201.095L164,89.667L98.747,390.833
	l118.208,118.208C229.685,510.989,242.724,512,256,512C397.385,512,512,397.385,512,256z"/>
<rect x="98.75" y="128.5" style="fill:#FFFFFF;" width="314.51" height="262.33"/>
<rect x="255.95" y="128.5" style="fill:#E0E0E0;" width="157.3" height="262.33"/>
<rect x="98.75" y="128.5" style="fill:#FE9A35;" width="314.51" height="60.62"/>
<rect x="255.95" y="128.5" style="fill:#FF7C11;" width="157.3" height="60.62"/>
<g>
	<rect x="134.39" y="214.84" style="fill:#E0E0E0;" width="32.33" height="32.33"/>
	<rect x="187.11" y="214.84" style="fill:#E0E0E0;" width="32.33" height="32.33"/>
	<rect x="239.83" y="214.84" style="fill:#E0E0E0;" width="32.33" height="32.33"/>
</g>
<g>
	<rect x="255.95" y="214.84" style="fill:#C0C0C0;" width="16.214" height="32.33"/>
	<rect x="292.56" y="214.84" style="fill:#C0C0C0;" width="32.33" height="32.33"/>
	<rect x="345.28" y="214.84" style="fill:#C0C0C0;" width="32.33" height="32.33"/>
</g>
<g>
	<rect x="134.39" y="269.59" style="fill:#E0E0E0;" width="32.33" height="32.33"/>
	<rect x="187.11" y="269.59" style="fill:#E0E0E0;" width="32.33" height="32.33"/>
</g>
<rect x="239.83" y="269.59" style="fill:#FF328D;" width="32.33" height="32.33"/>
<g>
	<rect x="255.95" y="269.59" style="fill:#C40B5A;" width="16.214" height="32.33"/>
	<rect x="292.56" y="269.59" style="fill:#C40B5A;" width="32.33" height="32.33"/>
	<rect x="345.28" y="269.59" style="fill:#C40B5A;" width="32.33" height="32.33"/>
</g>
<g>
	<rect x="134.39" y="324.33" style="fill:#FF328D;" width="32.33" height="32.33"/>
	<rect x="187.11" y="324.33" style="fill:#FF328D;" width="32.33" height="32.33"/>
	<rect x="239.83" y="324.33" style="fill:#FF328D;" width="32.33" height="32.33"/>
</g>
<rect x="255.95" y="324.33" style="fill:#C40B5A;" width="16.214" height="32.33"/>
<g>
	<rect x="292.56" y="324.33" style="fill:#C0C0C0;" width="32.33" height="32.33"/>
	<rect x="345.28" y="324.33" style="fill:#C0C0C0;" width="32.33" height="32.33"/>
</g>
<rect x="132" y="89.67" style="fill:#E0E0E0;" width="32" height="69.33"/>
<rect x="348" y="89.67" style="fill:#C0C0C0;" width="32" height="69.33"/>
<g>
</g>
<g>
</g>
<g>
</g>
<g>
</g>
<g>
</g>
<g>
</g>
<g>
</g>
<g>
</g>
<g>
</g>
<g>
</g>
<g>
</g>
<g>
</g>
<g>
</g>
<g>
</g>
<g>
</g>
</svg>
