<?xml version="1.0" encoding="iso-8859-1"?>
<!-- Generator: Adobe Illustrator 19.0.0, SVG Export Plug-In . SVG Version: 6.00 Build 0)  -->
<svg version="1.1" id="Capa_1" xmlns="http://www.w3.org/2000/svg" xmlns:xlink="http://www.w3.org/1999/xlink" x="0px" y="0px"
	 viewBox="0 0 512 512" style="enable-background:new 0 0 512 512;" xml:space="preserve">
<circle style="fill:#35CCFF;" cx="256" cy="256" r="256"/>
<path style="fill:#00BAFF;" d="M512,256c0-12.636-0.931-25.054-2.7-37.2L418.5,128l-4.735,6.265L381.5,102l-37.98,183.02L160.5,102
	l-67,293l112.01,112.01c16.324,3.266,33.205,4.99,50.49,4.99C397.385,512,512,397.385,512,256z"/>
<rect x="93.5" y="128" style="fill:#FFFFFF;" width="325" height="267"/>
<rect x="255.95" y="128" style="fill:#E0E0E0;" width="162.55" height="267"/>
<rect x="93.5" y="128" style="fill:#FF6838;" width="325" height="59"/>
<rect x="255.95" y="128" style="fill:#AE4E32;" width="162.55" height="59"/>
<g>
	<circle style="fill:#E0E0E0;" cx="136" cy="230" r="16"/>
	<circle style="fill:#E0E0E0;" cx="196" cy="230" r="16"/>
</g>
<circle style="fill:#97CC52;" cx="256" cy="230" r="16"/>
<g>
	<path style="fill:#60C344;" d="M256,214c-0.016,0-0.031,0.002-0.048,0.002v31.995c0.016,0,0.031,0.002,0.048,0.002
		c8.836,0,16-7.164,16-16S264.836,214,256,214z"/>
	<circle style="fill:#60C344;" cx="376" cy="230" r="16"/>
	<circle style="fill:#60C344;" cx="316" cy="230" r="16"/>
</g>
<g>
	<circle style="fill:#97CC52;" cx="136" cy="285.5" r="16"/>
	<circle style="fill:#97CC52;" cx="196" cy="285.5" r="16"/>
	<circle style="fill:#97CC52;" cx="256" cy="285.5" r="16"/>
</g>
<path style="fill:#60C344;" d="M256,269.5c-0.016,0-0.031,0.002-0.048,0.002v31.995c0.016,0,0.031,0.002,0.048,0.002
	c8.836,0,16-7.164,16-16S264.836,269.5,256,269.5z"/>
<circle style="fill:#C0C0C0;" cx="376" cy="285.5" r="16"/>
<circle style="fill:#60C344;" cx="316" cy="285.5" r="16"/>
<g>
	<circle style="fill:#E0E0E0;" cx="136" cy="341" r="16"/>
	<circle style="fill:#E0E0E0;" cx="196" cy="341" r="16"/>
	<circle style="fill:#E0E0E0;" cx="256" cy="341" r="16"/>
</g>
<g>
	<path style="fill:#C0C0C0;" d="M256,325c-0.016,0-0.031,0.002-0.048,0.002v31.995c0.016,0,0.031,0.002,0.048,0.002
		c8.836,0,16-7.164,16-16S264.836,325,256,325z"/>
	<circle style="fill:#C0C0C0;" cx="376" cy="341" r="16"/>
	<circle style="fill:#C0C0C0;" cx="316" cy="341" r="16"/>
</g>
<rect x="130.5" y="102" style="fill:#FFCF35;" width="30" height="59"/>
<rect x="351.5" y="102" style="fill:#FFB344;" width="30" height="59"/>
<g>
</g>
<g>
</g>
<g>
</g>
<g>
</g>
<g>
</g>
<g>
</g>
<g>
</g>
<g>
</g>
<g>
</g>
<g>
</g>
<g>
</g>
<g>
</g>
<g>
</g>
<g>
</g>
<g>
</g>
</svg>
