<?xml version="1.0" encoding="iso-8859-1"?>
<!-- Generator: Adobe Illustrator 19.0.0, SVG Export Plug-In . SVG Version: 6.00 Build 0)  -->
<svg version="1.1" id="Layer_1" xmlns="http://www.w3.org/2000/svg" xmlns:xlink="http://www.w3.org/1999/xlink" x="0px" y="0px"
	 viewBox="0 0 512.002 512.002" style="enable-background:new 0 0 512.002 512.002;" xml:space="preserve">
<circle style="fill:#273B7A;" cx="256.001" cy="256" r="256"/>
<path style="fill:#121149;" d="M511.923,262.128L394.775,144.98l-3.601,4.648l-28.191-28.336l-6.477,33.125l17.606,17.23
	l-78.967,76.238L168.775,121.384l-7.204,94.679l80.551,79.941l-37.847,30.556l-79.401,59.414l125.962,125.962
	c1.719,0.034,3.437,0.065,5.163,0.065C395.337,512,508.667,400.682,511.923,262.128z"/>
<path style="fill:#FFFFFF;" d="M366.739,394.774H145.262c-15.484,0-28.036-12.552-28.036-28.036V172.735h277.549v194.003
	C394.775,382.223,382.224,394.774,366.739,394.774z"/>
<path style="fill:#D0D1D3;" d="M255.427,172.735v222.039h111.313c15.484,0,28.036-12.552,28.036-28.036V172.735H255.427z"/>
<rect x="117.226" y="144.98" style="fill:#FF7F4F;" width="277.549" height="55.51"/>
<rect x="255.432" y="144.98" style="fill:#D35933;" width="139.343" height="55.51"/>
<path style="fill:#B54324;" d="M158.859,172.735L158.859,172.735c-7.664,0-13.877-6.213-13.877-13.877v-27.755
	c0-7.664,6.213-13.877,13.877-13.877l0,0c7.664,0,13.877,6.213,13.877,13.877v27.755
	C172.736,166.522,166.523,172.735,158.859,172.735z"/>
<path style="fill:#930000;" d="M353.143,172.735L353.143,172.735c-7.664,0-13.877-6.213-13.877-13.877v-27.755
	c0-7.664,6.213-13.877,13.877-13.877l0,0c7.664,0,13.877,6.213,13.877,13.877v27.755
	C367.02,166.522,360.807,172.735,353.143,172.735z"/>
<g>
	<path style="fill:#FFC61B;" d="M158.859,256L158.859,256c-7.664,0-13.877-6.213-13.877-13.877l0,0
		c0-7.664,6.213-13.877,13.877-13.877l0,0c7.664,0,13.877,6.213,13.877,13.877l0,0C172.736,249.787,166.523,256,158.859,256z"/>
	<path style="fill:#FFC61B;" d="M207.43,256L207.43,256c-7.664,0-13.877-6.213-13.877-13.877l0,0
		c0-7.664,6.213-13.877,13.877-13.877l0,0c7.664,0,13.877,6.213,13.877,13.877l0,0C221.307,249.787,215.094,256,207.43,256z"/>
	<path style="fill:#FFC61B;" d="M256.001,256L256.001,256c-7.664,0-13.877-6.213-13.877-13.877l0,0
		c0-7.664,6.213-13.877,13.877-13.877l0,0c7.664,0,13.877,6.213,13.877,13.877l0,0C269.878,249.787,263.665,256,256.001,256z"/>
</g>
<g>
	<path style="fill:#EAA22F;" d="M304.572,256L304.572,256c-7.664,0-13.877-6.213-13.877-13.877l0,0
		c0-7.664,6.213-13.877,13.877-13.877l0,0c7.664,0,13.877,6.213,13.877,13.877l0,0C318.449,249.787,312.236,256,304.572,256z"/>
	<path style="fill:#EAA22F;" d="M353.143,256L353.143,256c-7.664,0-13.877-6.213-13.877-13.877l0,0
		c0-7.664,6.213-13.877,13.877-13.877l0,0c7.664,0,13.877,6.213,13.877,13.877l0,0C367.02,249.787,360.807,256,353.143,256z"/>
</g>
<g>
	<path style="fill:#FFC61B;" d="M158.859,293.007L158.859,293.007c-7.664,0-13.877-6.213-13.877-13.877l0,0
		c0-7.664,6.213-13.877,13.877-13.877l0,0c7.664,0,13.877,6.213,13.877,13.877l0,0C172.736,286.794,166.523,293.007,158.859,293.007
		z"/>
	<path style="fill:#FFC61B;" d="M207.43,293.007L207.43,293.007c-7.664,0-13.877-6.213-13.877-13.877l0,0
		c0-7.664,6.213-13.877,13.877-13.877l0,0c7.664,0,13.877,6.213,13.877,13.877l0,0C221.307,286.794,215.094,293.007,207.43,293.007z
		"/>
	<path style="fill:#FFC61B;" d="M256.001,293.007L256.001,293.007c-7.664,0-13.877-6.213-13.877-13.877l0,0
		c0-7.664,6.213-13.877,13.877-13.877l0,0c7.664,0,13.877,6.213,13.877,13.877l0,0C269.878,286.794,263.665,293.007,256.001,293.007
		z"/>
</g>
<g>
	<path style="fill:#EAA22F;" d="M304.572,293.007L304.572,293.007c-7.664,0-13.877-6.213-13.877-13.877l0,0
		c0-7.664,6.213-13.877,13.877-13.877l0,0c7.664,0,13.877,6.213,13.877,13.877l0,0C318.449,286.794,312.236,293.007,304.572,293.007
		z"/>
	<path style="fill:#EAA22F;" d="M353.143,293.007L353.143,293.007c-7.664,0-13.877-6.213-13.877-13.877l0,0
		c0-7.664,6.213-13.877,13.877-13.877l0,0c7.664,0,13.877,6.213,13.877,13.877l0,0C367.02,286.794,360.807,293.007,353.143,293.007z
		"/>
</g>
<g>
	<path style="fill:#FFC61B;" d="M158.859,330.012L158.859,330.012c-7.664,0-13.877-6.213-13.877-13.877l0,0
		c0-7.664,6.213-13.877,13.877-13.877l0,0c7.664,0,13.877,6.213,13.877,13.877l0,0C172.736,323.799,166.523,330.012,158.859,330.012
		z"/>
	<path style="fill:#FFC61B;" d="M207.43,330.012L207.43,330.012c-7.664,0-13.877-6.213-13.877-13.877l0,0
		c0-7.664,6.213-13.877,13.877-13.877l0,0c7.664,0,13.877,6.213,13.877,13.877l0,0C221.307,323.799,215.094,330.012,207.43,330.012z
		"/>
	<path style="fill:#FFC61B;" d="M256.001,330.012L256.001,330.012c-7.664,0-13.877-6.213-13.877-13.877l0,0
		c0-7.664,6.213-13.877,13.877-13.877l0,0c7.664,0,13.877,6.213,13.877,13.877l0,0C269.878,323.799,263.665,330.012,256.001,330.012
		z"/>
</g>
<path style="fill:#D35933;" d="M304.572,330.012L304.572,330.012c-7.664,0-13.877-6.213-13.877-13.877l0,0
	c0-7.664,6.213-13.877,13.877-13.877l0,0c7.664,0,13.877,6.213,13.877,13.877l0,0C318.449,323.799,312.236,330.012,304.572,330.012z
	"/>
<path style="fill:#EAA22F;" d="M353.143,330.012L353.143,330.012c-7.664,0-13.877-6.213-13.877-13.877l0,0
	c0-7.664,6.213-13.877,13.877-13.877l0,0c7.664,0,13.877,6.213,13.877,13.877l0,0C367.02,323.799,360.807,330.012,353.143,330.012z"
	/>
<g>
	<path style="fill:#FFC61B;" d="M158.859,367.02L158.859,367.02c-7.664,0-13.877-6.213-13.877-13.877l0,0
		c0-7.664,6.213-13.877,13.877-13.877l0,0c7.664,0,13.877,6.213,13.877,13.877l0,0C172.736,360.807,166.523,367.02,158.859,367.02z"
		/>
	<path style="fill:#FFC61B;" d="M207.43,367.02L207.43,367.02c-7.664,0-13.877-6.213-13.877-13.877l0,0
		c0-7.664,6.213-13.877,13.877-13.877l0,0c7.664,0,13.877,6.213,13.877,13.877l0,0C221.307,360.807,215.094,367.02,207.43,367.02z"
		/>
	<path style="fill:#FFC61B;" d="M256.001,367.02L256.001,367.02c-7.664,0-13.877-6.213-13.877-13.877l0,0
		c0-7.664,6.213-13.877,13.877-13.877l0,0c7.664,0,13.877,6.213,13.877,13.877l0,0C269.878,360.807,263.665,367.02,256.001,367.02z"
		/>
</g>
<g>
	<path style="fill:#EAA22F;" d="M256.001,228.245c-0.193,0-0.383,0.021-0.574,0.029v27.696c0.191,0.009,0.381,0.029,0.574,0.029
		c7.664,0,13.877-6.213,13.877-13.877l0,0C269.878,234.458,263.665,228.245,256.001,228.245z"/>
	<path style="fill:#EAA22F;" d="M256.001,265.252c-0.193,0-0.383,0.021-0.574,0.029v27.696c0.191,0.009,0.381,0.029,0.574,0.029
		c7.664,0,13.877-6.213,13.877-13.877l0,0C269.878,271.465,263.665,265.252,256.001,265.252z"/>
	<path style="fill:#EAA22F;" d="M256.001,302.258c-0.193,0-0.383,0.021-0.574,0.029v27.696c0.191,0.009,0.381,0.029,0.574,0.029
		c7.664,0,13.877-6.213,13.877-13.877C269.878,308.472,263.665,302.258,256.001,302.258z"/>
	<path style="fill:#EAA22F;" d="M256.001,339.265c-0.193,0-0.383,0.021-0.574,0.029v27.696c0.191,0.009,0.381,0.029,0.574,0.029
		c7.664,0,13.877-6.213,13.877-13.877S263.665,339.265,256.001,339.265z"/>
	<path style="fill:#EAA22F;" d="M304.572,367.02L304.572,367.02c-7.664,0-13.877-6.213-13.877-13.877l0,0
		c0-7.664,6.213-13.877,13.877-13.877l0,0c7.664,0,13.877,6.213,13.877,13.877l0,0C318.449,360.807,312.236,367.02,304.572,367.02z"
		/>
	<path style="fill:#EAA22F;" d="M353.143,367.02L353.143,367.02c-7.664,0-13.877-6.213-13.877-13.877l0,0
		c0-7.664,6.213-13.877,13.877-13.877l0,0c7.664,0,13.877,6.213,13.877,13.877l0,0C367.02,360.807,360.807,367.02,353.143,367.02z"
		/>
</g>
<path style="fill:#8BC180;" d="M304.572,358.372c-23.29,0-42.236-18.946-42.236-42.236s18.946-42.236,42.236-42.236
	c23.29,0,42.236,18.946,42.236,42.236S327.862,358.372,304.572,358.372z M304.572,284.244c-17.586,0-31.892,14.307-31.892,31.892
	s14.307,31.892,31.892,31.892s31.892-14.307,31.892-31.892S322.157,284.244,304.572,284.244z"/>
<g>
</g>
<g>
</g>
<g>
</g>
<g>
</g>
<g>
</g>
<g>
</g>
<g>
</g>
<g>
</g>
<g>
</g>
<g>
</g>
<g>
</g>
<g>
</g>
<g>
</g>
<g>
</g>
<g>
</g>
</svg>
