<?xml version="1.0"?>
<svg xmlns="http://www.w3.org/2000/svg" xmlns:xlink="http://www.w3.org/1999/xlink" version="1.1" id="Capa_1" x="0px" y="0px" viewBox="0 0 512 512" style="enable-background:new 0 0 512 512;" xml:space="preserve" width="512px" height="512px" class=""><g><circle style="fill:#B9EAFF" cx="256" cy="256" r="256" data-original="#B9EAFF" class="" data-old_color="#FF5600"/><path style="fill:#35CCFF" d="M358.254,125.649l-57.508-57.508l11.628,129.767l99.858,99.858l-22.684,22.684l-160.28-160.279  L121.662,194.33l108.721,112.179L106.192,397l112.25,112.25C230.702,511.053,243.24,512,256,512c141.385,0,256-114.615,256-256  c0-21.411-2.644-42.202-7.596-62.08L370.625,60.142L358.254,125.649z" data-original="#35CCFF" class="" data-old_color="#FF4700"/><polygon style="fill:#AE283F" points="390.507,324.275 389.771,181.525 349.27,155.77 350.627,59.859 370.625,60.142   369.426,144.886 409.715,170.506 410.507,324.172 " data-original="#AE283F" class=""/><rect x="364.21" y="146.62" style="fill:#333333" width="32" height="211.38" data-original="#333333" class=""/><polygon style="fill:#808080" points="405,397 250,397 282,342 396,342 " data-original="#808080" class=""/><rect x="149.9" y="170.96" style="fill:#999999" width="25.91" height="88.45" data-original="#999999" class=""/><rect x="162.33" y="170.96" style="fill:#808080" width="13.478" height="88.45" data-original="#808080" class=""/><path style="fill:#666666" d="M287.917,307.06l-77.51-50.915l0,0c-13.525-10.814-30.674-17.284-49.337-17.284  c-43.669,0-79.069,35.4-79.069,79.069S117.4,397,161.069,397H267.77c20.266,0,36.695-16.429,36.695-36.695v-22.574  C304.466,325.373,298.246,313.845,287.917,307.06z" data-original="#666666"/><path style="fill:#4D4D4D" d="M287.917,307.06l-77.51-50.915c-13.218-10.568-29.902-16.971-48.073-17.257V397H267.77  c20.267,0,36.696-16.429,36.696-36.695v-22.574C304.466,325.373,298.246,313.845,287.917,307.06z" data-original="#4D4D4D"/><path style="fill:#333333" d="M222.493,188.118l-90.917,11.827c-5.678,0.739-10.712-3.683-10.712-9.409V165.26  c0-5.24,4.248-9.488,9.488-9.488h90.917c5.24,0,9.488,4.248,9.488,9.488v13.449C230.757,183.476,227.22,187.503,222.493,188.118z" data-original="#333333" class=""/><g>
	<path style="fill:#1A1A1A" d="M221.269,155.772h-58.936v40.171l60.16-7.826c4.727-0.615,8.264-4.642,8.264-9.409V165.26   C230.757,160.02,226.509,155.772,221.269,155.772z" data-original="#1A1A1A" class=""/>
	<circle style="fill:#1A1A1A" cx="162.63" cy="318.15" r="50.702" data-original="#1A1A1A" class=""/>
</g><path d="M162.633,267.452c-0.1,0-0.199,0.007-0.299,0.008v101.39c0.1,0.001,0.199,0.008,0.299,0.008  c28.002,0,50.702-22.7,50.702-50.702S190.635,267.452,162.633,267.452z" data-original="#000000" class="" style="fill:#000000"/><circle style="fill:#FF6838" cx="117.74" cy="388.2" r="14.518" data-original="#FF6838" class=""/><rect x="341.246" y="93.302" transform="matrix(-0.4943 -0.8693 0.8693 -0.4943 399.9591 540.6771)" width="32" height="121.401" data-original="#000000" class="" style="fill:#000000"/><polygon style="fill:#F1333F" points="381.174,320.517 347.445,181.807 302.086,166.116 281.225,72.491 300.746,68.142   319.178,150.866 364.3,166.475 400.607,315.792 " data-original="#F1333F" class="active-path"/><polygon style="fill:#666666" points="427.895,327.238 145.016,335.29 144.391,303.299 427.269,295.247 " data-original="#666666"/><polygon style="fill:#999999" points="427.269,295.247 162.333,302.788 162.333,334.797 427.895,327.238 " data-original="#999999" class=""/></g> </svg>
