<svg height="512pt" viewBox="0 0 512 512" width="512pt" xmlns="http://www.w3.org/2000/svg"><path d="m512 256c0 141.386719-114.613281 256-256 256s-256-114.613281-256-256 114.613281-256 256-256 256 114.613281 256 256zm0 0" fill="#ff583e"/><path d="m68.304688 310.882812 200.785156 200.789063c132.164062-6.660156 237.886718-113.550781 242.71875-246.1875l-64.367188-64.367187-7.597656 9.09375-37.457031-37.457032-49.160157 68.753906-88.292968 21.5-90.25-90.253906zm0 0" fill="#e80e03"/><path d="m158.503906 221.503906h194.992188v68.996094h-194.992188zm0 0" fill="#fff"/><path d="m255.90625 221.503906h97.589844v68.996094h-97.589844zm0 0" fill="#e9edf5"/><path d="m68.304688 201.117188h61.324218v109.765624h-61.324218zm0 0" fill="#1c259e"/><path d="m113.359375 172.753906h61.324219v166.492188h-61.324219zm0 0" fill="#3440db"/><path d="m386.117188 201.117188h61.324218v109.765624h-61.324218zm0 0" fill="#141b73"/><path d="m341.0625 172.753906h61.324219v166.492188h-61.324219zm0 0" fill="#1c259e"/></svg>