<svg height="512pt" viewBox="0 0 512 512" width="512pt" xmlns="http://www.w3.org/2000/svg"><path d="m512 256c0 141.386719-114.613281 256-256 256s-256-114.613281-256-256 114.613281-256 256-256 256 114.613281 256 256zm0 0" fill="#00efd1"/><path d="m507.5625 208.394531-142.394531-142.394531h-213.425781v225.734375h-18.863282c-12.449218 0-22.542968 9.730469-22.542968 21.734375 0 6.9375 3.378906 13.109375 8.632812 17.085938-4.234375 3.957031-6.867188 9.488281-6.867188 15.605468 0 7.164063 3.59375 13.503906 9.125 17.472656-3.996093 3.921876-6.46875 9.292969-6.46875 15.230469 0 7.945313 4.433594 14.878907 11.035157 18.671875.402343.714844.851562 1.398438 1.332031 2.058594-2.351562 3.429688-3.742188 7.546875-3.742188 11.972656 0 6.445313 2.917969 12.230469 7.546876 16.207032l78.851562 80.054687c14.992188 2.734375 30.4375 4.171875 46.21875 4.171875 141.386719 0 256-114.613281 256-256 0-16.269531-1.535156-32.179688-4.4375-47.605469zm0 0" fill="#00ceb4"/><path d="m365.167969 209.550781h-187.859375v-143.550781h187.859375l-45.660157 71.773438zm0 0" fill="#ff52a1"/><path d="m365.171875 209.550781h-187.863281v-71.78125h142.199218zm0 0" fill="#ff127f"/><path d="m151.742188 66h30v234.289062h-30zm0 0" fill="#9331b2"/><path d="m166.742188 66h15v234.289062h-15zm0 0" fill="#681f7b"/><path d="m272.816406 291.734375v140.171875h-134.851562c-8.519532-3.101562-14.582032-11.042969-14.582032-20.339844 0-4.859375 1.660157-9.359375 4.453126-12.972656-7.71875-3.453125-13.078126-10.988281-13.078126-19.730469 0-5.9375 2.472657-11.308593 6.46875-15.230469-5.53125-3.964843-9.125-10.308593-9.125-17.472656 0-6.117187 2.632813-11.648437 6.867188-15.605468-5.257812-3.976563-8.636719-10.148438-8.636719-17.085938 0-12 10.09375-21.734375 22.546875-21.734375h48.863282v-29.003906c24.324218 4.347656 72.195312 29.003906 72.195312 29.003906zm0 0" fill="#ffdba9"/><path d="m137.96875 431.902344c-8.523438-3.101563-14.585938-11.035156-14.585938-20.335938 0-4.863281 1.65625-9.351562 4.457032-12.972656-7.722656-3.449219-13.082032-10.984375-13.082032-19.726562 0-5.710938 2.289063-10.898438 6.023438-14.773438h152.03125v67.808594zm0 0" fill="#ffc473"/><path d="m373.160156 438.5h-101.921875v-150.273438h101.921875zm0 0" fill="#9331b2"/><path d="m373.160156 438.5h-101.921875v-74.410156h101.921875zm0 0" fill="#681f7b"/></svg>