<?xml version="1.0" encoding="iso-8859-1"?>
<!-- Generator: Adobe Illustrator 19.0.0, SVG Export Plug-In . SVG Version: 6.00 Build 0)  -->
<svg version="1.1" id="Capa_1" xmlns="http://www.w3.org/2000/svg" xmlns:xlink="http://www.w3.org/1999/xlink" x="0px" y="0px"
	 viewBox="0 0 512 512" style="enable-background:new 0 0 512 512;" xml:space="preserve">
<circle style="fill:#FFAA20;" cx="256" cy="256" r="256"/>
<path style="fill:#E67500;" d="M512,256c0-14.734-1.262-29.171-3.652-43.224L403.786,108.213
	c-50.943-50.942-133.537-50.942-184.479,0c-46.379,46.379-50.526,118.989-12.457,170.068l-25.215,25.215l-2.646-2.647l-8.382-8.382
	l-66.449,66.449c-11.269,11.269-11.269,29.54,0,40.809L212.78,508.349C226.831,510.738,241.267,512,256,512
	C397.385,512,512,397.385,512,256z"/>
<rect x="187.824" y="284.974" transform="matrix(-0.7071 -0.7071 0.7071 -0.7071 137.281 667.2015)" style="fill:#FFEC97;" width="37.998" height="40.39"/>
<rect x="193.34" y="302.39" transform="matrix(-0.7071 0.7071 -0.7071 -0.7071 585.0666 381.437)" style="fill:#FFD400;" width="40.39" height="19"/>
<circle style="fill:#FFFFFF;" cx="311.55" cy="200.45" r="130.45"/>
<path style="fill:#FFF5CB;" d="M403.786,292.698c-46.379,46.379-118.985,50.523-170.066,12.452
	c-5.027-3.741-9.85-7.898-14.411-12.459l184.477-184.477C454.726,159.154,454.733,241.751,403.786,292.698z"/>
<circle style="fill:#54FBFF;" cx="311.55" cy="200.45" r="100.3"/>
<path style="fill:#00D9E0;" d="M382.46,271.371c-39.167,39.167-102.665,39.167-141.831,0l141.839-141.839
	C421.633,168.699,421.626,232.205,382.46,271.371z"/>
<path style="fill:#FF127F;" d="M112.273,407.842l-8.116-8.116c-11.269-11.269-11.269-29.54,0-40.809l66.449-66.449l48.925,48.925
	l-66.449,66.449C141.813,419.111,123.542,419.111,112.273,407.842z"/>
<path style="fill:#B10853;" d="M219.535,341.396l-66.447,66.447c-11.271,11.271-29.543,11.271-40.814,0l-4.059-4.059l86.854-86.854
	L219.535,341.396z"/>
<g>
</g>
<g>
</g>
<g>
</g>
<g>
</g>
<g>
</g>
<g>
</g>
<g>
</g>
<g>
</g>
<g>
</g>
<g>
</g>
<g>
</g>
<g>
</g>
<g>
</g>
<g>
</g>
<g>
</g>
</svg>
