<?xml version="1.0" encoding="iso-8859-1"?>
<!-- Generator: Adobe Illustrator 19.0.0, SVG Export Plug-In . SVG Version: 6.00 Build 0)  -->
<svg version="1.1" id="Layer_1" xmlns="http://www.w3.org/2000/svg" xmlns:xlink="http://www.w3.org/1999/xlink" x="0px" y="0px"
	 viewBox="0 0 512 512" style="enable-background:new 0 0 512 512;" xml:space="preserve">
<circle style="fill:#273B7A;" cx="256" cy="256" r="256"/>
<path style="fill:#121149;" d="M300.341,508.163C419.349,487.379,510.09,384.412,511.95,259.896L391.165,139.111l-79.734,53.37
	l-9.676-9.678L139.186,347.008L300.341,508.163z"/>
<polygon style="fill:#FFFFFF;" points="387.346,176.34 308.219,176.34 292.378,149.964 387.346,149.964 "/>
<path style="fill:#FF7F4F;" d="M376.616,176.34h15.986v-33.006c0-3.843-3.115-6.956-6.956-6.956h-2.072
	c-3.843,0-6.956,3.115-6.956,6.956v33.006H376.616z"/>
<path style="fill:#FFC61B;" d="M298.575,360.97H170.118c-22.795,0-41.274-18.479-41.274-41.274V191.24
	c0-22.795,18.479-41.274,41.274-41.274h128.457c22.795,0,41.274,18.479,41.274,41.274v128.457
	C339.851,342.492,321.37,360.97,298.575,360.97z"/>
<path style="fill:#EAA22F;" d="M298.575,149.964h-64.267V360.97h64.267c22.795,0,41.274-18.479,41.274-41.274V191.24
	C339.851,168.443,321.37,149.964,298.575,149.964z"/>
<circle style="fill:#D35933;" cx="234.348" cy="255.466" r="65.543"/>
<g>
	<path style="fill:#B54324;" d="M234.348,189.928c-0.014,0-0.026,0-0.04,0v131.077c0.014,0,0.026,0,0.04,0
		c36.197,0,65.539-29.343,65.539-65.539S270.543,189.928,234.348,189.928z"/>
	<circle style="fill:#B54324;" cx="234.348" cy="255.466" r="38.371"/>
</g>
<path style="fill:#930000;" d="M234.348,217.097c-0.014,0-0.026,0-0.04,0v76.74c0.014,0,0.026,0,0.04,0
	c21.192,0,38.371-17.179,38.371-38.371S255.538,217.097,234.348,217.097z"/>
<rect x="229.555" y="238.209" style="fill:#FF7F4F;" width="9.592" height="34.53"/>
<rect x="234.313" y="238.209" style="fill:#D35933;" width="4.836" height="34.53"/>
<g>
</g>
<g>
</g>
<g>
</g>
<g>
</g>
<g>
</g>
<g>
</g>
<g>
</g>
<g>
</g>
<g>
</g>
<g>
</g>
<g>
</g>
<g>
</g>
<g>
</g>
<g>
</g>
<g>
</g>
</svg>
