<?xml version="1.0" encoding="iso-8859-1"?>
<!-- Generator: Adobe Illustrator 19.0.0, SVG Export Plug-In . SVG Version: 6.00 Build 0)  -->
<svg version="1.1" id="Capa_1" xmlns="http://www.w3.org/2000/svg" xmlns:xlink="http://www.w3.org/1999/xlink" x="0px" y="0px"
	 viewBox="0 0 512 512" style="enable-background:new 0 0 512 512;" xml:space="preserve">
<circle style="fill:#54FBFF;" cx="256" cy="256" r="256"/>
<path style="fill:#00D9E0;" d="M512,256c0-14.653-1.249-29.012-3.613-42.992L371.318,75.939c0,0-55.94,55.94-77.973,77.973
	c-18.226,18.226-21.944,43.73-10.248,64.442L140.682,75.939l-75.78,75.78l143.289,143.289l-106.28,106.28l106.225,106.225
	C223.644,510.447,239.639,512,256,512C397.385,512,512,397.385,512,256z"/>
<rect x="190.251" y="188.023" transform="matrix(-0.7071 -0.7071 0.7071 -0.7071 123.3314 688.6086)" style="fill:#E67500;" width="28.06" height="261.477"/>
<rect x="78.501" y="316.707" transform="matrix(-0.7071 0.7071 -0.7071 -0.7071 586.1005 404.6739)" style="fill:#9A4C00;" width="261.478" height="14.03"/>
<path style="fill:#FFAA20;" d="M371.318,75.939c0,0-55.941,55.941-77.973,77.973c-22.033,22.033-22.886,54.707-0.907,76.687
	c21.979,21.979,54.654,21.126,76.687-0.907c22.033-22.033,77.973-77.973,77.973-77.973L371.318,75.939z"/>
<path style="fill:#FF8900;" d="M447.095,151.716c0,0-55.939,55.939-77.973,77.973c-18.555,18.555-44.654,22.097-65.549,9.617
	c-3.932-2.333-7.665-5.233-11.137-8.704L409.208,113.83L447.095,151.716z"/>
<rect x="293.696" y="188.025" transform="matrix(0.7071 -0.7071 0.7071 0.7071 -135.2691 310.9589)" style="fill:#E67500;" width="28.06" height="261.477"/>
<rect x="172.029" y="316.71" transform="matrix(0.7071 0.7071 -0.7071 0.7071 317.5869 -119.2718)" style="fill:#9A4C00;" width="261.478" height="14.03"/>
<path style="fill:#FFAA20;" d="M140.682,75.939c0,0,55.941,55.941,77.973,77.973c22.033,22.033,22.886,54.707,0.907,76.687
	s-54.654,21.126-76.687-0.907s-77.973-77.973-77.973-77.973L140.682,75.939z"/>
<path style="fill:#FF8900;" d="M64.905,151.716c0,0,55.939,55.939,77.973,77.973c18.555,18.555,44.654,22.097,65.549,9.617
	c3.931-2.333,7.665-5.233,11.137-8.704L102.792,113.829L64.905,151.716z"/>
<g>
</g>
<g>
</g>
<g>
</g>
<g>
</g>
<g>
</g>
<g>
</g>
<g>
</g>
<g>
</g>
<g>
</g>
<g>
</g>
<g>
</g>
<g>
</g>
<g>
</g>
<g>
</g>
<g>
</g>
</svg>
