<svg height="512pt" viewBox="0 0 512 512" width="512pt" xmlns="http://www.w3.org/2000/svg"><path d="m512 256c0 141.386719-114.613281 256-256 256s-256-114.613281-256-256 114.613281-256 256-256 256 114.613281 256 256zm0 0" fill="#414952"/><path d="m512 256c0-8.882812-.453125-17.65625-1.335938-26.304688l-77.007812-77.003906-367.3125 91.839844 67.46875 69.4375-41.175781 38.152344 47.542969 47.539062-4.878907 5.484375 106.457031 106.453125c4.714844.261719 9.460938.402344 14.242188.402344 141.386719 0 256-114.613281 256-256zm0 0" fill="#23272b"/><path d="m433.65625 152.691406-314.484375 78.628906 118.449219 134.035157zm0 0" fill="#b5efff"/><path d="m433.65625 152.691406-367.3125 91.839844 112.710938 54.554688zm0 0" fill="#19cffc"/><path d="m126.285156 353.984375 45.109375-33.335937 7.128907 9.652343-45.105469 33.332031zm0 0" fill="#fff"/><path d="m178.539062 330.300781-3.484374-4.714843-45.59375 32.675781 3.972656 5.375zm0 0" fill="#e9edf5"/><path d="m85.492188 342.464844 45.105468-33.332032 7.132813 9.648438-45.105469 33.335938zm0 0" fill="#fff"/><path d="m128.152344 395.492188 45.109375-33.335938 7.128906 9.652344-45.105469 33.332031zm0 0" fill="#e9edf5"/></svg>