<?xml version="1.0" encoding="iso-8859-1"?>
<!-- Generator: Adobe Illustrator 19.0.0, SVG Export Plug-In . SVG Version: 6.00 Build 0)  -->
<svg version="1.1" id="Layer_1" xmlns="http://www.w3.org/2000/svg" xmlns:xlink="http://www.w3.org/1999/xlink" x="0px" y="0px"
	 viewBox="0 0 512 512" style="enable-background:new 0 0 512 512;" xml:space="preserve">
<circle style="fill:#273B7A;" cx="256" cy="256" r="256"/>
<path style="fill:#121149;" d="M302.054,507.861c108.084-19.637,192.502-107.134,207.538-216.75L373.619,155.138l-14.193,9.806
	l-67.16-66.224l-36.585,15.346l2.089,15.758l-37.178-13.429l35.088,34.7v113.783l33.439,33.439L154.31,360.119L302.054,507.861z"/>
<rect x="146.752" y="144.56" transform="matrix(-0.8237 0.567 -0.567 -0.8237 383.6587 215.8978)" style="fill:#E09112;" width="23.029" height="46.06"/>
<rect x="339.562" y="144.567" transform="matrix(0.8237 0.567 -0.567 0.8237 156.9193 -169.5179)" style="fill:#FF5419;" width="23.029" height="46.06"/>
<rect x="232.607" y="107.089" style="fill:#E09112;" width="46.77" height="65.905"/>
<g>
	<rect x="256" y="107.089" style="fill:#FF5419;" width="23.386" height="65.905"/>
	<path style="fill:#FF5419;" d="M282.352,120.077h-52.703c-7.17,0-12.983-5.813-12.983-12.983l0,0
		c0-7.17,5.813-12.983,12.983-12.983h52.703c7.17,0,12.983,5.813,12.983,12.983l0,0
		C295.334,114.264,289.521,120.077,282.352,120.077z"/>
</g>
<path style="fill:#C92F00;" d="M282.352,94.111H256v25.965h26.352c7.17,0,12.983-5.813,12.983-12.983
	C295.334,99.924,289.521,94.111,282.352,94.111z"/>
<g>
	<circle style="fill:#FFEDB5;" cx="256" cy="269.636" r="127.569"/>
	<path style="fill:#FFEDB5;" d="M383.569,269.633c0-70.454-57.115-127.569-127.569-127.569v255.138
		C326.454,397.202,383.569,340.087,383.569,269.633z"/>
</g>
<path style="fill:#FF5419;" d="M256,405.819c-75.095,0-136.189-61.093-136.189-136.189S180.905,133.442,256,133.442
	s136.189,61.093,136.189,136.189S331.093,405.819,256,405.819z M256,150.681c-65.589,0-118.949,53.36-118.949,118.949
	S190.411,388.58,256,388.58s118.949-53.36,118.949-118.949S321.589,150.681,256,150.681z"/>
<path style="fill:#C92F00;" d="M392.189,269.631c0-75.093-61.093-136.189-136.189-136.189v17.239
	c65.589,0,118.949,53.36,118.949,118.949S321.589,388.58,256,388.58v17.239C331.095,405.819,392.189,344.726,392.189,269.631z"/>
<circle style="fill:#FFC61B;" cx="256" cy="269.636" r="97.401"/>
<path style="fill:#EAA22F;" d="M353.401,269.633c0-53.793-43.608-97.401-97.401-97.401v194.801
	C309.793,367.033,353.401,323.425,353.401,269.633z"/>
<path style="fill:#FF5419;" d="M256,182.46l9.481,89.298c0.557,5.237-3.238,9.931-8.475,10.488s-9.931-3.237-10.488-8.475
	c-0.071-0.665-0.064-1.372,0-2.014L256,182.46z"/>
<path style="fill:#C92F00;" d="M265.481,271.758L256,182.465v99.833c0.333,0,0.669-0.017,1.007-0.052
	C262.242,281.69,266.037,276.995,265.481,271.758z"/>
<circle style="fill:#E09112;" cx="256" cy="269.636" r="17.01"/>
<path style="fill:#FF5419;" d="M273.01,269.633c0-9.394-7.614-17.01-17.008-17.01v34.018
	C265.394,286.641,273.01,279.026,273.01,269.633z"/>
<g>
</g>
<g>
</g>
<g>
</g>
<g>
</g>
<g>
</g>
<g>
</g>
<g>
</g>
<g>
</g>
<g>
</g>
<g>
</g>
<g>
</g>
<g>
</g>
<g>
</g>
<g>
</g>
<g>
</g>
</svg>
