<?xml version="1.0"?>
<svg xmlns="http://www.w3.org/2000/svg" height="512px" viewBox="0 0 512 512" width="512px" class=""><g><path d="m512 256c0 141.386719-114.613281 256-256 256s-256-114.613281-256-256 114.613281-256 256-256 256 114.613281 256 256zm0 0" fill="#ffd400" data-original="#FFD400" class="active-path" style="fill:#007AFF" data-old_color="#0072FF"/><path d="m512 256c0-1.023438-.027344-2.039062-.039062-3.058594l-170.496094-170.496094-82.929688 80.445313 32.886719 32.882813-170.421875 8.558593 41.667969 41.667969v80.195312l-75.625 40.859376 143.707031 143.707031c8.308594.8125 16.726562 1.238281 25.25 1.238281 141.386719 0 256-114.613281 256-256zm0 0" fill="#fdba12" data-original="#FDBA12" class="" style="fill:#0054FF" data-old_color="#004CFF"/><path d="m153.84375 201h17.644531v84h-17.644531zm0 0" fill="#37474f" data-original="#37474F" class=""/><path d="m401 287.667969h-60.667969l-47.332031-169.335938h36.667969zm0 0" fill="#263238" data-original="#263238"/><path d="m387.246094 372.800781h-262.492188c-23.824218 0-43.132812-19.3125-43.132812-43.136719 0-23.820312 19.308594-43.132812 43.132812-43.132812h262.492188c23.820312 0 43.132812 19.3125 43.132812 43.132812 0 23.824219-19.3125 43.136719-43.132812 43.136719zm0 0" fill="#788f9b" data-original="#788F9B"/><path d="m387.246094 286.535156h-131.292969v86.265625h131.292969c23.820312 0 43.132812-19.3125 43.132812-43.136719 0-23.820312-19.3125-43.128906-43.132812-43.128906zm0 0" fill="#607d8a" data-original="#607D8A"/><path d="m387.246094 382.800781h-262.492188c-29.296875 0-53.132812-23.835937-53.132812-53.136719 0-29.296874 23.832031-53.128906 53.132812-53.128906h262.492188c29.300781 0 53.132812 23.832032 53.132812 53.128906 0 29.300782-23.832031 53.136719-53.132812 53.136719zm-262.492188-86.265625c-18.269531 0-33.132812 14.863282-33.132812 33.128906 0 18.273438 14.863281 33.136719 33.132812 33.136719h262.492188c18.269531 0 33.132812-14.863281 33.132812-33.136719 0-18.265624-14.863281-33.128906-33.132812-33.128906zm0 0" fill="#455a64" data-original="#455A64" class="" style="fill:#455A64"/><path d="m387.246094 276.535156h-131.292969v20h131.292969c18.269531 0 33.132812 14.863282 33.132812 33.128906 0 18.273438-14.863281 33.136719-33.132812 33.136719h-131.292969v20h131.292969c29.300781 0 53.132812-23.835937 53.132812-53.136719 0-29.296874-23.832031-53.128906-53.132812-53.128906zm0 0" fill="#37474f" data-original="#37474F" class=""/><path d="m150 329c0 11.414062-9.253906 20.667969-20.667969 20.667969-11.414062 0-20.667969-9.253907-20.667969-20.667969s9.253907-20.667969 20.667969-20.667969c11.414063 0 20.667969 9.253907 20.667969 20.667969zm0 0" fill="#455a64" data-original="#455A64" class="" style="fill:#455A64"/><path d="m403.335938 329c0 11.414062-9.253907 20.667969-20.667969 20.667969-11.414063 0-20.667969-9.253907-20.667969-20.667969s9.253906-20.667969 20.667969-20.667969c11.414062 0 20.667969 9.253907 20.667969 20.667969zm0 0" fill="#37474f" data-original="#37474F" class=""/><path d="m121 183.667969h212v20.667969h-212zm0 0" fill="#37474f" data-original="#37474F" class=""/><path d="m255.953125 183.667969h77.046875v20.667969h-77.046875zm0 0" fill="#263238" data-original="#263238"/><path d="m242.863281 131.21875 98.59375-48.773438 15.667969 31.667969-98.59375 48.777344zm0 0" fill="#455a64" data-original="#455A64" class="" style="fill:#455A64"/><path d="m357.132812 114.113281-15.667968-31.667969-85.511719 42.300782v32.917968l2.582031 5.226563zm0 0" fill="#37474f" data-original="#37474F" class=""/></g> </svg>
