<svg height="512pt" viewBox="0 0 512 512" width="512pt" xmlns="http://www.w3.org/2000/svg"><path d="m512 256c0 141.386719-114.613281 256-256 256s-256-114.613281-256-256 114.613281-256 256-256 256 114.613281 256 256zm0 0" fill="#ffd460"/><path d="m503.25 322.53125c-72.253906-72.253906-197.453125-197.460938-197.695312-197.695312-12.59375-12.851563-98.109376 98.109374-98.109376 98.109374l60 60 .011719.015626-137.023437 125.039062s48.777344 48.710938 103.121094 103.007812c7.398437.644532 14.878906.992188 22.445312.992188 118.371094 0 217.957031-80.34375 247.25-189.46875zm0 0" fill="#ffbe11"/><path d="m130.433594 408h125.566406l13.21875-62.78125-13.21875-62.785156c-69.347656 0-125.566406 56.21875-125.566406 125.566406zm0 0" fill="#8bc0ff"/><path d="m256 282.433594v125.566406h125.566406c0-69.347656-56.21875-125.566406-125.566406-125.566406zm0 0" fill="#3897ff"/><path d="m186.609375 173.390625c0 38.324219 31.066406 69.390625 69.390625 69.390625l13.21875-69.390625-13.21875-69.390625c-38.324219 0-69.390625 31.066406-69.390625 69.390625zm0 0" fill="#8bc0ff"/><path d="m256 104v138.78125c38.324219 0 69.390625-31.066406 69.390625-69.390625s-31.066406-69.390625-69.390625-69.390625zm0 0" fill="#3897ff"/></svg>